<svg xmlns="http://www.w3.org/2000/svg" version="1.1" xmlns:xlink="http://www.w3.org/1999/xlink" xmlns:svgjs="http://svgjs.dev/svgjs" width="1000" height="1000" viewBox="0 0 1000 1000"><rect width="1000" height="1000" fill="#ffffff"></rect><g transform="matrix(0.7,0,0,0.7,149.57575781406172,411.43660244666484)"><svg viewBox="0 0 396 100" data-background-color="#ffffff" preserveAspectRatio="xMidYMid meet" height="252" width="1000" xmlns="http://www.w3.org/2000/svg" xmlns:xlink="http://www.w3.org/1999/xlink"><defs></defs><g id="tight-bounds" transform="matrix(1,0,0,1,0.24000013481202132,0.20600768329657626)"><svg viewBox="0 0 395.52 99.58798463340685" height="99.58798463340685" width="395.52"><g><svg viewBox="0 0 585.5574348498842 147.437512196115" height="99.58798463340685" width="395.52"><g><rect width="6.831725631292954" height="128.02099467101155" x="413.4040985112381" y="9.708258762551722" fill="#e65728" opacity="1" stroke-width="0" stroke="transparent" fill-opacity="1" class="rect-o-0" data-fill-palette-color="primary" rx="1%" id="o-0" data-palette-color="#e65728"></rect></g><g transform="matrix(1,0,0,1,0,20.376674985136013)"><svg viewBox="0 0 395.52 106.68416222584297" height="106.68416222584297" width="395.52"><g><svg viewBox="0 0 395.52 106.68416222584297" height="106.68416222584297" width="395.52"><g><svg viewBox="0 0 395.52 75.75568253968255" height="75.75568253968255" width="395.52"><g transform="matrix(1,0,0,1,0,0)"><svg width="395.52" viewBox="4.300000190734863 -35.45000076293945 188.989990234375 36.20000076293945" height="75.75568253968255" data-palette-color="#e65728"><path d="M4.3 0L4.3-34.65 9.15-34.65 9.15 0 4.3 0ZM45.55 0L41.5 0Q40.4-1.85 38.97-4.15 37.55-6.45 35.9-8.93 34.25-11.4 32.47-13.95 30.7-16.5 28.95-18.88 27.2-21.25 25.55-23.35 23.9-25.45 22.5-27.05L22.5-27.05 22.5 0 17.75 0 17.75-34.65 21.6-34.65Q23.95-32.15 26.62-28.83 29.3-25.5 31.92-21.98 34.55-18.45 36.87-15.05 39.2-11.65 40.8-9L40.8-9 40.8-34.65 45.55-34.65 45.55 0ZM62.2-3.45L62.2-3.45Q69.8-3.45 69.8-8.65L69.8-8.65Q69.8-10.25 69.12-11.38 68.44-12.5 67.3-13.33 66.14-14.15 64.67-14.75 63.2-15.35 61.55-15.95L61.55-15.95Q59.64-16.6 57.95-17.43 56.24-18.25 54.99-19.38 53.74-20.5 53.02-22.05 52.3-23.6 52.3-25.8L52.3-25.8Q52.3-30.35 55.39-32.9 58.49-35.45 63.95-35.45L63.95-35.45Q67.09-35.45 69.67-34.77 72.25-34.1 73.44-33.3L73.44-33.3 71.89-29.35Q70.84-30 68.77-30.63 66.69-31.25 63.95-31.25L63.95-31.25Q62.55-31.25 61.34-30.95 60.14-30.65 59.24-30.05 58.34-29.45 57.82-28.53 57.3-27.6 57.3-26.35L57.3-26.35Q57.3-24.95 57.84-24 58.39-23.05 59.39-22.33 60.39-21.6 61.72-21 63.05-20.4 64.64-19.8L64.64-19.8Q66.89-18.9 68.77-18 70.64-17.1 72.02-15.85 73.39-14.6 74.14-12.88 74.89-11.15 74.89-8.7L74.89-8.7Q74.89-4.15 71.57-1.7 68.25 0.75 62.2 0.75L62.2 0.75Q60.14 0.75 58.42 0.48 56.7 0.2 55.34-0.18 53.99-0.55 53.02-0.98 52.05-1.4 51.49-1.7L51.49-1.7 52.95-5.7Q54.09-5.05 56.45-4.25 58.8-3.45 62.2-3.45ZM89.94-35L89.94-35Q97.24-35 101.17-32.23 105.09-29.45 105.09-23.95L105.09-23.95Q105.09-20.95 104.02-18.82 102.94-16.7 100.92-15.38 98.89-14.05 95.99-13.45 93.09-12.85 89.44-12.85L89.44-12.85 85.59-12.85 85.59 0 80.74 0 80.74-34.15Q82.79-34.65 85.32-34.83 87.84-35 89.94-35ZM90.34-30.75L90.34-30.75Q87.24-30.75 85.59-30.6L85.59-30.6 85.59-17 89.24-17Q91.74-17 93.74-17.32 95.74-17.65 97.12-18.43 98.49-19.2 99.24-20.55 99.99-21.9 99.99-24L99.99-24Q99.99-26 99.22-27.3 98.44-28.6 97.12-29.38 95.79-30.15 94.04-30.45 92.29-30.75 90.34-30.75ZM133.54 0L111.14 0 111.14-34.65 132.29-34.65 132.29-30.5 115.99-30.5 115.99-20.2 130.49-20.2 130.49-16.15 115.99-16.15 115.99-4.15 133.54-4.15 133.54 0ZM153.19 0.75L153.19 0.75Q149.54 0.75 146.54-0.45 143.54-1.65 141.39-3.95 139.24-6.25 138.06-9.63 136.89-13 136.89-17.35L136.89-17.35Q136.89-21.7 138.21-25.08 139.54-28.45 141.79-30.75 144.04-33.05 147.04-34.25 150.04-35.45 153.44-35.45L153.44-35.45Q155.59-35.45 157.31-35.15 159.04-34.85 160.31-34.45 161.59-34.05 162.39-33.65 163.19-33.25 163.49-33.05L163.49-33.05 162.09-29.05Q161.64-29.35 160.79-29.7 159.94-30.05 158.86-30.4 157.79-30.75 156.51-30.98 155.24-31.2 153.94-31.2L153.94-31.2Q151.19-31.2 148.99-30.25 146.79-29.3 145.24-27.5 143.69-25.7 142.86-23.13 142.04-20.55 142.04-17.35L142.04-17.35Q142.04-14.25 142.76-11.7 143.49-9.15 144.94-7.33 146.39-5.5 148.56-4.5 150.74-3.5 153.64-3.5L153.64-3.5Q156.99-3.5 159.19-4.2 161.39-4.9 162.49-5.45L162.49-5.45 163.74-1.45Q163.39-1.2 162.49-0.83 161.59-0.45 160.24-0.1 158.89 0.25 157.09 0.5 155.29 0.75 153.19 0.75ZM166.64-34.65L193.29-34.65 193.29-30.45 182.39-30.45 182.39 0 177.53 0 177.53-30.45 166.64-30.45 166.64-34.65Z" opacity="1" transform="matrix(1,0,0,1,0,0)" fill="#e65728" class="undefined-text-0" data-fill-palette-color="primary" id="text-0"></path></svg></g></svg></g><g transform="matrix(1,0,0,1,163.310208,93.63978105092065)"><svg viewBox="0 0 232.209792 13.044381174922318" height="13.044381174922318" width="232.209792"><g transform="matrix(1,0,0,1,0,0)"><svg width="232.209792" viewBox="2.2899999618530273 -33.88999938964844 801.3200073242188 45.02000045776367" height="13.044381174922318" data-palette-color="#e65728"><path d="M12.79 0L2.39 0 2.29-1.86 5.27-2.54Q5.37-2.78 5.4-3.66 5.42-4.54 5.44-6.05 5.47-7.57 5.47-9.72L5.47-9.72 5.47-18.9Q5.47-21.09 5.44-22.63 5.42-24.17 5.4-25.07 5.37-25.98 5.27-26.12L5.27-26.12 2.29-26.81 2.39-28.66 12.79-28.66 12.89-26.81 9.91-26.12Q9.81-25.98 9.74-25.17 9.67-24.37 9.64-22.85 9.62-21.34 9.62-18.9L9.62-18.9 9.62-9.72Q9.62-7.37 9.64-5.86 9.67-4.35 9.74-3.54 9.81-2.73 9.91-2.54L9.91-2.54 12.89-1.86 12.79 0ZM26.66 0L16.65 0 16.55-1.76 19.58-2.49Q19.63-2.83 19.65-3.42 19.68-4 19.72-5.03 19.77-6.05 19.77-7.71L19.77-7.71 19.82-11.47Q19.82-13.09 19.7-14.7 19.58-16.31 19.43-17.19L19.43-17.19 16.31-17.87 16.31-19.48 22.85-21.29 23.68-20.51 23.44-17.92 23.58-17.87Q25.29-19.73 26.95-20.56 28.61-21.39 30.56-21.39L30.56-21.39Q32.37-21.39 33.96-20.48 35.54-19.58 36.55-17.7 37.55-15.82 37.55-12.99L37.55-12.99 37.55-7.57Q37.55-5.81 37.62-4.39 37.69-2.98 37.84-2.49L37.84-2.49 40.87-1.76 40.72 0 30.91 0 30.81-1.76 33.64-2.49Q33.69-2.88 33.74-3.47 33.79-4.05 33.81-4.98 33.84-5.91 33.84-7.23L33.84-7.23 33.84-12.5Q33.84-14.7 33.08-15.99 32.32-17.29 31.2-17.85 30.08-18.41 28.9-18.41L28.9-18.41Q27.29-18.41 25.93-17.63 24.56-16.85 23.53-15.38L23.53-15.38 23.53-8.06Q23.53-5.76 23.61-4.39 23.68-3.03 23.78-2.49L23.78-2.49 26.8-1.76 26.66 0ZM51.56 0.39L51.56 0.39Q49.75 0.39 47.94-0.02 46.14-0.44 44.87-1.12L44.87-1.12 44.62-6.35 47.02-6.35 47.99-2.83Q49.6-1.66 51.9-1.66L51.9-1.66Q53.51-1.66 54.56-2.47 55.61-3.27 55.61-4.64L55.61-4.64Q55.61-5.96 54.68-6.88 53.75-7.81 51.07-8.94L51.07-8.94Q47.6-10.45 46.19-11.87 44.77-13.28 44.77-15.43L44.77-15.43Q44.77-17.19 45.82-18.53 46.87-19.87 48.73-20.63 50.58-21.39 53.02-21.39L53.02-21.39Q54.39-21.39 55.81-21.17 57.22-20.95 58.15-20.51L58.15-20.51 58.69-15.43 56.39-15.43 55.22-18.75Q54.73-19.04 54.05-19.21 53.36-19.38 52.58-19.38L52.58-19.38Q50.87-19.38 49.85-18.58 48.82-17.77 48.82-16.5L48.82-16.5Q48.82-15.04 49.95-14.14 51.07-13.23 53.9-11.91L53.9-11.91Q57.12-10.45 58.39-9.03 59.66-7.62 59.66-5.62L59.66-5.62Q59.66-2.98 57.37-1.29 55.07 0.39 51.56 0.39ZM74.06 10.74L63.03 10.74 62.93 8.98 65.96 8.25Q65.96 8.01 65.98 7.42 66.01 6.84 66.03 5.83 66.06 4.83 66.11 3.47 66.15 2.1 66.15 0.29L66.15 0.29 66.25-11.77Q66.25-13.23 66.13-14.77 66.01-16.31 65.86-17.19L65.86-17.19 62.74-17.87 62.74-19.48 69.28-21.29 70.11-20.51 69.87-17.82 70.01-17.82Q71.38-19.58 73.01-20.48 74.65-21.39 76.56-21.39L76.56-21.39Q79.24-21.39 81.32-20.04 83.39-18.7 84.59-16.36 85.78-14.01 85.78-11.04L85.78-11.04Q85.78-7.76 84.32-5.2 82.85-2.64 80.34-1.15 77.82 0.34 74.65 0.34L74.65 0.34Q73.48 0.34 72.23 0.12 70.99-0.1 69.96-0.49L69.96-0.49 69.96 3.17Q69.96 5.03 70.04 6.32 70.11 7.62 70.16 8.25L70.16 8.25 74.16 8.89 74.06 10.74ZM74.8-2.05L74.8-2.05Q76.8-2.05 78.26-3 79.73-3.96 80.58-5.76 81.44-7.57 81.49-10.11L81.49-10.11Q81.54-12.45 80.71-14.26 79.88-16.06 78.46-17.11 77.04-18.16 75.19-18.16L75.19-18.16Q73.63-18.16 72.33-17.46 71.04-16.75 69.96-15.38L69.96-15.38 69.96-3.56Q70.89-2.83 72.18-2.44 73.48-2.05 74.8-2.05ZM99.94 0.39L99.94 0.39Q97.11 0.39 94.81-0.88 92.52-2.15 91.2-4.52 89.88-6.88 89.88-10.11L89.88-10.11Q89.88-13.57 91.3-16.11 92.71-18.65 95.01-20.04 97.3-21.44 99.94-21.39L99.94-21.39Q103.75-21.34 105.9-18.87 108.05-16.41 108.05-11.82L108.05-11.82 108.05-10.94 93.06-10.94 93.06-13.09 104.82-13.09 104.29-12.45 104.29-13.48Q104.29-16.26 103.04-17.8 101.8-19.34 99.55-19.34L99.55-19.34Q98.18-19.34 96.91-18.53 95.64-17.72 94.86-16.09 94.08-14.45 94.08-11.96L94.08-11.96 94.08-11.38Q94.08-7.37 96.06-5.13 98.04-2.88 101.16-2.88L101.16-2.88Q102.92-2.88 104.26-3.54 105.61-4.2 106.87-5.76L106.87-5.76 108.1-4.64Q106.73-2.1 104.63-0.85 102.53 0.39 99.94 0.39ZM121.86 0.39L121.86 0.39Q119.13 0.39 116.83-0.85 114.54-2.1 113.17-4.47 111.8-6.84 111.8-10.11L111.8-10.11Q111.8-13.28 113.24-15.82 114.68-18.36 117.18-19.87 119.67-21.39 122.84-21.39L122.84-21.39Q124.99-21.39 126.45-20.85 127.92-20.31 128.67-19.43 129.43-18.55 129.43-17.58L129.43-17.58Q129.43-16.8 128.94-16.28 128.45-15.77 127.58-15.77L127.58-15.77Q126.75-15.77 126.21-16.06 125.67-16.36 124.79-17.24L124.79-17.24 122.3-19.73 124.06-19.24Q122.11-19.68 120.3-18.87 118.49-18.07 117.32-16.09 116.15-14.11 116.15-10.99L116.15-10.99Q116.15-7.08 118.13-4.98 120.1-2.88 123.08-2.88L123.08-2.88Q124.94-2.88 126.28-3.56 127.62-4.25 128.84-5.76L128.84-5.76 130.16-4.64Q128.8-2.1 126.7-0.85 124.6 0.39 121.86 0.39ZM146.52-4.25L147.4-3.03Q146.47-1.42 144.86-0.51 143.25 0.39 141.49 0.39L141.49 0.39Q138.56 0.39 136.63-1.42 134.7-3.22 134.7-6.84L134.7-6.84 134.85-18.51 131.43-18.51 131.43-19.53 137.73-25.24 138.66-25.24 138.56-19.63 138.51-7.62Q138.51-5.08 139.61-3.86 140.71-2.64 142.71-2.64L142.71-2.64Q143.83-2.64 144.78-3.1 145.74-3.56 146.52-4.25L146.52-4.25ZM145.93-18.51L136.8-18.51 136.8-20.95 145.93-20.95 145.93-18.51ZM181.57-1.03L175.18 0.54 174.44-0.1 174.49-3.27 174.35-3.32Q172.93-1.27 171.37-0.44 169.8 0.39 168.1 0.39L168.1 0.39Q165.31 0.39 163.11-0.93 160.92-2.25 159.67-4.52 158.43-6.79 158.43-9.77L158.43-9.77Q158.43-12.35 159.31-14.5 160.19-16.65 161.72-18.19 163.26-19.73 165.21-20.56 167.17-21.39 169.27-21.39L169.27-21.39Q170.59-21.39 172.03-21.04 173.47-20.7 174.44-19.97L174.44-19.97Q174.44-20.85 174.42-22.27 174.39-23.68 174.37-25.22 174.35-26.76 174.32-27.95 174.3-29.15 174.25-29.59L174.25-29.59 170.44-30.27 170.34-31.88 177.52-33.89 178.4-33.2Q178.3-30.18 178.25-27.34 178.2-24.51 178.2-21.44L178.2-21.44 178.15-10.21Q178.15-7.71 178.28-5.93 178.4-4.15 178.45-3.42L178.45-3.42 181.57-2.64 181.57-1.03ZM169.32-2.88L169.32-2.88Q170.68-2.88 171.93-3.49 173.17-4.1 174.44-5.66L174.44-5.66 174.44-16.16Q173.52-17.82 172.1-18.51 170.68-19.19 169.27-19.19L169.27-19.19Q166.19-19.19 164.46-16.92 162.72-14.65 162.72-11.04L162.72-11.04Q162.72-7.13 164.65-5 166.58-2.88 169.32-2.88ZM192.36 0.39L192.36 0.39Q190.41 0.39 188.89-0.39 187.38-1.17 186.53-2.39 185.67-3.61 185.67-4.93L185.67-4.93Q185.67-6.54 186.72-7.62 187.77-8.69 190.26-9.52L190.26-9.52 197.68-12.01 197.68-14.5Q197.68-15.72 196.95-16.72 196.22-17.72 195-18.31 193.78-18.9 192.26-18.9L192.26-18.9Q191.04-18.9 190.6-18.38 190.16-17.87 190.07-16.36L190.07-16.36 189.97-14.31Q188.21-13.92 186.99-14.43 185.77-14.94 185.77-16.11L185.77-16.11Q185.77-16.94 186.5-17.77 187.23-18.6 188.41-19.36 189.58-20.12 190.92-20.65 192.26-21.19 193.58-21.39L193.58-21.39Q197.15-21.39 199.34-19.51 201.54-17.63 201.59-14.5L201.59-14.5 201.49-6.3Q201.49-5.42 201.56-4.52 201.64-3.61 201.78-3.17L201.78-3.17 204.91-2.59 204.91-1.07 202.52-0.2Q201.83 0.1 201.25 0.24 200.66 0.39 200.27 0.39L200.27 0.39Q198.76 0.39 198.32-1.32L198.32-1.32 197.78-3.22 198.51-3.22Q196.9-1.42 195.41-0.51 193.92 0.39 192.36 0.39ZM193.68-2.49L193.68-2.49Q194.8-2.49 195.8-3 196.8-3.52 197.68-4.59L197.68-4.59 197.68-9.72 192.21-8.25Q191.04-7.96 190.53-7.32 190.02-6.69 190.02-5.71L190.02-5.71Q190.02-4.49 191.12-3.49 192.21-2.49 193.68-2.49ZM221.9-4.25L222.78-3.03Q221.85-1.42 220.24-0.51 218.63 0.39 216.87 0.39L216.87 0.39Q213.94 0.39 212.01-1.42 210.08-3.22 210.08-6.84L210.08-6.84 210.23-18.51 206.81-18.51 206.81-19.53 213.11-25.24 214.04-25.24 213.94-19.63 213.89-7.62Q213.89-5.08 214.99-3.86 216.09-2.64 218.09-2.64L218.09-2.64Q219.21-2.64 220.17-3.1 221.12-3.56 221.9-4.25L221.9-4.25ZM221.31-18.51L212.18-18.51 212.18-20.95 221.31-20.95 221.31-18.51ZM231.81 0.39L231.81 0.39Q229.86 0.39 228.34-0.39 226.83-1.17 225.97-2.39 225.12-3.61 225.12-4.93L225.12-4.93Q225.12-6.54 226.17-7.62 227.22-8.69 229.71-9.52L229.71-9.52 237.13-12.01 237.13-14.5Q237.13-15.72 236.4-16.72 235.67-17.72 234.45-18.31 233.22-18.9 231.71-18.9L231.71-18.9Q230.49-18.9 230.05-18.38 229.61-17.87 229.51-16.36L229.51-16.36 229.42-14.31Q227.66-13.92 226.44-14.43 225.22-14.94 225.22-16.11L225.22-16.11Q225.22-16.94 225.95-17.77 226.68-18.6 227.85-19.36 229.03-20.12 230.37-20.65 231.71-21.19 233.03-21.39L233.03-21.39Q236.59-21.39 238.79-19.51 240.99-17.63 241.04-14.5L241.04-14.5 240.94-6.3Q240.94-5.42 241.01-4.52 241.09-3.61 241.23-3.17L241.23-3.17 244.36-2.59 244.36-1.07 241.96-0.2Q241.28 0.1 240.7 0.24 240.11 0.39 239.72 0.39L239.72 0.39Q238.2 0.39 237.77-1.32L237.77-1.32 237.23-3.22 237.96-3.22Q236.35-1.42 234.86-0.51 233.37 0.39 231.81 0.39ZM233.13-2.49L233.13-2.49Q234.25-2.49 235.25-3 236.25-3.52 237.13-4.59L237.13-4.59 237.13-9.72 231.66-8.25Q230.49-7.96 229.98-7.32 229.46-6.69 229.46-5.71L229.46-5.71Q229.46-4.49 230.56-3.49 231.66-2.49 233.13-2.49ZM280.88 0.2L279.36 0.2 271.89-18.51 269.4-19.24 269.5-21 278.48-21 278.58-19.24 276.04-18.51 281.71-3.66 280.49-3.61 286.3-18.51 283.76-19.24 283.85-21 291.42-21 291.52-19.24 289.23-18.51 280.88 0.2ZM266.67 0.2L265.15 0.2 257.24-18.51 254.95-19.24 255.05-21 264.08-21 264.18-19.24 261.69-18.51 267.74-3.66 266.28-3.61 272.72-18.95 274.04-15.92 266.67 0.2ZM303.04 0L293.03 0 292.93-1.76 295.96-2.49Q296.06-3.03 296.08-4.13 296.11-5.22 296.16-7.08 296.21-8.94 296.21-11.62L296.21-11.62 296.21-17.72Q296.21-19.38 296.18-21.29 296.16-23.19 296.13-24.98 296.11-26.76 296.06-28.1 296.01-29.44 296.01-29.83L296.01-29.83 292.4-30.32 292.3-31.88 299.18-33.89 300.11-33.2Q300.06-31.69 300.01-30.18 299.97-28.66 299.94-26.9 299.92-25.15 299.89-22.97 299.87-20.8 299.87-17.92L299.87-17.92 300.01-17.87Q301.67-19.73 303.33-20.56 304.99-21.39 306.95-21.39L306.95-21.39Q308.75-21.39 310.34-20.46 311.93-19.53 312.93-17.65 313.93-15.77 313.93-12.84L313.93-12.84 313.93-7.57Q313.93-5.81 314.03-4.42 314.13-3.03 314.22-2.49L314.22-2.49 317.25-1.76 317.15 0 307.34 0 307.19-1.76 310.02-2.49Q310.07-2.88 310.12-3.47 310.17-4.05 310.19-4.98 310.22-5.91 310.22-7.23L310.22-7.23 310.22-12.5Q310.22-14.6 309.51-15.89 308.8-17.19 307.68-17.8 306.56-18.41 305.29-18.41L305.29-18.41Q303.68-18.41 302.31-17.63 300.94-16.85 299.92-15.38L299.92-15.38 299.92-8.06Q299.92-5.81 299.99-4.35 300.06-2.88 300.16-2.49L300.16-2.49 303.14-1.76 303.04 0ZM330.24 0L319.69 0 319.59-1.81 322.86-2.49Q322.91-2.69 322.94-3.17 322.96-3.66 323.01-4.74 323.06-5.81 323.06-7.71L323.06-7.71 323.06-10.94Q323.06-12.99 322.96-14.65 322.86-16.31 322.72-17.19L322.72-17.19 319.44-17.87 319.44-19.48 326.38-21.29 327.11-20.61Q326.96-19.09 326.89-17.63 326.82-16.16 326.82-14.21L326.82-14.21 326.82-8.06Q326.82-5.81 326.89-4.35 326.96-2.88 327.06-2.49L327.06-2.49 330.33-1.81 330.24 0ZM324.96-26.81L324.96-26.81Q323.69-26.81 322.81-27.64 321.94-28.47 321.94-29.69L321.94-29.69Q321.94-30.86 322.81-31.71 323.69-32.57 324.96-32.57L324.96-32.57Q326.23-32.57 327.06-31.71 327.89-30.86 327.89-29.69L327.89-29.69Q327.89-28.47 327.06-27.64 326.23-26.81 324.96-26.81ZM343.22 0L332.82 0 332.72-1.81 335.9-2.49Q336-3.03 336.02-4.13 336.04-5.22 336.09-7.08 336.14-8.94 336.14-11.62L336.14-11.62 336.14-17.72Q336.14-19.53 336.12-21.48 336.09-23.44 336.07-25.2 336.04-26.95 336-28.2 335.95-29.44 335.95-29.83L335.95-29.83 332.33-30.32 332.24-31.88 339.22-33.89 340.15-33.2Q340.1-31.1 340.05-29.08 340-27.05 339.97-24.56 339.95-22.07 339.95-18.55L339.95-18.55 339.9-10.69Q339.9-7.81 339.97-5.49 340.05-3.17 340.15-2.49L340.15-2.49 343.32-1.81 343.22 0ZM356.7 0.39L356.7 0.39Q353.86 0.39 351.57-0.88 349.27-2.15 347.96-4.52 346.64-6.88 346.64-10.11L346.64-10.11Q346.64-13.57 348.05-16.11 349.47-18.65 351.76-20.04 354.06-21.44 356.7-21.39L356.7-21.39Q360.5-21.34 362.65-18.87 364.8-16.41 364.8-11.82L364.8-11.82 364.8-10.94 349.81-10.94 349.81-13.09 361.58-13.09 361.04-12.45 361.04-13.48Q361.04-16.26 359.8-17.8 358.55-19.34 356.31-19.34L356.31-19.34Q354.94-19.34 353.67-18.53 352.4-17.72 351.62-16.09 350.84-14.45 350.84-11.96L350.84-11.96 350.84-11.38Q350.84-7.37 352.81-5.13 354.79-2.88 357.92-2.88L357.92-2.88Q359.67-2.88 361.02-3.54 362.36-4.2 363.63-5.76L363.63-5.76 364.85-4.64Q363.48-2.1 361.38-0.85 359.28 0.39 356.7 0.39ZM387.79 0L377.25 0 377.15-1.81 380.42-2.49Q380.47-2.69 380.49-3.17 380.52-3.66 380.57-4.74 380.62-5.81 380.62-7.71L380.62-7.71 380.62-10.94Q380.62-12.99 380.52-14.65 380.42-16.31 380.27-17.19L380.27-17.19 377-17.87 377-19.48 383.94-21.29 384.67-20.61Q384.52-19.09 384.45-17.63 384.38-16.16 384.38-14.21L384.38-14.21 384.38-8.06Q384.38-5.81 384.45-4.35 384.52-2.88 384.62-2.49L384.62-2.49 387.89-1.81 387.79 0ZM382.52-26.81L382.52-26.81Q381.25-26.81 380.37-27.64 379.49-28.47 379.49-29.69L379.49-29.69Q379.49-30.86 380.37-31.71 381.25-32.57 382.52-32.57L382.52-32.57Q383.79-32.57 384.62-31.71 385.45-30.86 385.45-29.69L385.45-29.69Q385.45-28.47 384.62-27.64 383.79-26.81 382.52-26.81ZM400.54 0L390.53 0 390.43-1.76 393.46-2.49Q393.5-2.83 393.53-3.42 393.55-4 393.6-5.03 393.65-6.05 393.65-7.71L393.65-7.71 393.7-11.47Q393.7-13.09 393.58-14.7 393.46-16.31 393.31-17.19L393.31-17.19 390.18-17.87 390.18-19.48 396.73-21.29 397.56-20.51 397.31-17.92 397.46-17.87Q399.17-19.73 400.83-20.56 402.49-21.39 404.44-21.39L404.44-21.39Q406.25-21.39 407.84-20.48 409.42-19.58 410.42-17.7 411.42-15.82 411.42-12.99L411.42-12.99 411.42-7.57Q411.42-5.81 411.5-4.39 411.57-2.98 411.72-2.49L411.72-2.49 414.74-1.76 414.6 0 404.78 0 404.69-1.76 407.52-2.49Q407.57-2.88 407.62-3.47 407.66-4.05 407.69-4.98 407.71-5.91 407.71-7.23L407.71-7.23 407.71-12.5Q407.71-14.7 406.96-15.99 406.2-17.29 405.08-17.85 403.95-18.41 402.78-18.41L402.78-18.41Q401.17-18.41 399.8-17.63 398.44-16.85 397.41-15.38L397.41-15.38 397.41-8.06Q397.41-5.76 397.48-4.39 397.56-3.03 397.66-2.49L397.66-2.49 400.68-1.76 400.54 0ZM425.44 0.39L425.44 0.39Q423.63 0.39 421.82-0.02 420.02-0.44 418.75-1.12L418.75-1.12 418.5-6.35 420.89-6.35 421.87-2.83Q423.48-1.66 425.78-1.66L425.78-1.66Q427.39-1.66 428.44-2.47 429.49-3.27 429.49-4.64L429.49-4.64Q429.49-5.96 428.56-6.88 427.63-7.81 424.95-8.94L424.95-8.94Q421.48-10.45 420.06-11.87 418.65-13.28 418.65-15.43L418.65-15.43Q418.65-17.19 419.7-18.53 420.75-19.87 422.6-20.63 424.46-21.39 426.9-21.39L426.9-21.39Q428.27-21.39 429.68-21.17 431.1-20.95 432.03-20.51L432.03-20.51 432.56-15.43 430.27-15.43 429.1-18.75Q428.61-19.04 427.93-19.21 427.24-19.38 426.46-19.38L426.46-19.38Q424.75-19.38 423.73-18.58 422.7-17.77 422.7-16.5L422.7-16.5Q422.7-15.04 423.82-14.14 424.95-13.23 427.78-11.91L427.78-11.91Q431-10.45 432.27-9.03 433.54-7.62 433.54-5.62L433.54-5.62Q433.54-2.98 431.25-1.29 428.95 0.39 425.44 0.39ZM447.94 10.74L436.91 10.74 436.81 8.98 439.84 8.25Q439.84 8.01 439.86 7.42 439.89 6.84 439.91 5.83 439.94 4.83 439.98 3.47 440.03 2.1 440.03 0.29L440.03 0.29 440.13-11.77Q440.13-13.23 440.01-14.77 439.89-16.31 439.74-17.19L439.74-17.19 436.61-17.87 436.61-19.48 443.16-21.29 443.99-20.51 443.74-17.82 443.89-17.82Q445.26-19.58 446.89-20.48 448.53-21.39 450.43-21.39L450.43-21.39Q453.12-21.39 455.19-20.04 457.27-18.7 458.47-16.36 459.66-14.01 459.66-11.04L459.66-11.04Q459.66-7.76 458.2-5.2 456.73-2.64 454.22-1.15 451.7 0.34 448.53 0.34L448.53 0.34Q447.36 0.34 446.11 0.12 444.87-0.1 443.84-0.49L443.84-0.49 443.84 3.17Q443.84 5.03 443.91 6.32 443.99 7.62 444.04 8.25L444.04 8.25 448.04 8.89 447.94 10.74ZM448.68-2.05L448.68-2.05Q450.68-2.05 452.14-3 453.61-3.96 454.46-5.76 455.32-7.57 455.36-10.11L455.36-10.11Q455.41-12.45 454.58-14.26 453.75-16.06 452.34-17.11 450.92-18.16 449.07-18.16L449.07-18.16Q447.5-18.16 446.21-17.46 444.92-16.75 443.84-15.38L443.84-15.38 443.84-3.56Q444.77-2.83 446.06-2.44 447.36-2.05 448.68-2.05ZM473.82 0.39L473.82 0.39Q470.99 0.39 468.69-0.88 466.4-2.15 465.08-4.52 463.76-6.88 463.76-10.11L463.76-10.11Q463.76-13.57 465.18-16.11 466.59-18.65 468.89-20.04 471.18-21.44 473.82-21.39L473.82-21.39Q477.63-21.34 479.78-18.87 481.92-16.41 481.92-11.82L481.92-11.82 481.92-10.94 466.93-10.94 466.93-13.09 478.7-13.09 478.17-12.45 478.17-13.48Q478.17-16.26 476.92-17.8 475.67-19.34 473.43-19.34L473.43-19.34Q472.06-19.34 470.79-18.53 469.52-17.72 468.74-16.09 467.96-14.45 467.96-11.96L467.96-11.96 467.96-11.38Q467.96-7.37 469.94-5.13 471.92-2.88 475.04-2.88L475.04-2.88Q476.8-2.88 478.14-3.54 479.48-4.2 480.75-5.76L480.75-5.76 481.97-4.64Q480.61-2.1 478.51-0.85 476.41 0.39 473.82 0.39ZM495.74 0.39L495.74 0.39Q493.01 0.39 490.71-0.85 488.42-2.1 487.05-4.47 485.68-6.84 485.68-10.11L485.68-10.11Q485.68-13.28 487.12-15.82 488.56-18.36 491.05-19.87 493.54-21.39 496.72-21.39L496.72-21.39Q498.87-21.39 500.33-20.85 501.8-20.31 502.55-19.43 503.31-18.55 503.31-17.58L503.31-17.58Q503.31-16.8 502.82-16.28 502.33-15.77 501.45-15.77L501.45-15.77Q500.62-15.77 500.09-16.06 499.55-16.36 498.67-17.24L498.67-17.24 496.18-19.73 497.94-19.24Q495.98-19.68 494.18-18.87 492.37-18.07 491.2-16.09 490.03-14.11 490.03-10.99L490.03-10.99Q490.03-7.08 492.01-4.98 493.98-2.88 496.96-2.88L496.96-2.88Q498.82-2.88 500.16-3.56 501.5-4.25 502.72-5.76L502.72-5.76 504.04-4.64Q502.67-2.1 500.57-0.85 498.48 0.39 495.74 0.39ZM520.4-4.25L521.28-3.03Q520.35-1.42 518.74-0.51 517.13 0.39 515.37 0.39L515.37 0.39Q512.44 0.39 510.51-1.42 508.58-3.22 508.58-6.84L508.58-6.84 508.73-18.51 505.31-18.51 505.31-19.53 511.61-25.24 512.54-25.24 512.44-19.63 512.39-7.62Q512.39-5.08 513.49-3.86 514.59-2.64 516.59-2.64L516.59-2.64Q517.71-2.64 518.66-3.1 519.62-3.56 520.4-4.25L520.4-4.25ZM519.81-18.51L510.68-18.51 510.68-20.95 519.81-20.95 519.81-18.51ZM532.85 0L522.3 0 522.2-1.81 525.47-2.49Q525.52-2.69 525.55-3.17 525.57-3.66 525.62-4.74 525.67-5.81 525.67-7.71L525.67-7.71 525.67-10.94Q525.67-12.99 525.57-14.65 525.47-16.31 525.33-17.19L525.33-17.19 522.05-17.87 522.05-19.48 528.99-21.29 529.72-20.61Q529.57-19.09 529.5-17.63 529.43-16.16 529.43-14.21L529.43-14.21 529.43-8.06Q529.43-5.81 529.5-4.35 529.57-2.88 529.67-2.49L529.67-2.49 532.94-1.81 532.85 0ZM527.57-26.81L527.57-26.81Q526.3-26.81 525.42-27.64 524.54-28.47 524.54-29.69L524.54-29.69Q524.54-30.86 525.42-31.71 526.3-32.57 527.57-32.57L527.57-32.57Q528.84-32.57 529.67-31.71 530.5-30.86 530.5-29.69L530.5-29.69Q530.5-28.47 529.67-27.64 528.84-26.81 527.57-26.81ZM545.59 0L535.58 0 535.48-1.76 538.51-2.49Q538.56-2.83 538.58-3.42 538.6-4 538.65-5.03 538.7-6.05 538.7-7.71L538.7-7.71 538.75-11.47Q538.75-13.09 538.63-14.7 538.51-16.31 538.36-17.19L538.36-17.19 535.24-17.87 535.24-19.48 541.78-21.29 542.61-20.51 542.36-17.92 542.51-17.87Q544.22-19.73 545.88-20.56 547.54-21.39 549.49-21.39L549.49-21.39Q551.3-21.39 552.89-20.48 554.47-19.58 555.47-17.7 556.48-15.82 556.48-12.99L556.48-12.99 556.48-7.57Q556.48-5.81 556.55-4.39 556.62-2.98 556.77-2.49L556.77-2.49 559.8-1.76 559.65 0 549.83 0 549.74-1.76 552.57-2.49Q552.62-2.88 552.67-3.47 552.72-4.05 552.74-4.98 552.76-5.91 552.76-7.23L552.76-7.23 552.76-12.5Q552.76-14.7 552.01-15.99 551.25-17.29 550.13-17.85 549-18.41 547.83-18.41L547.83-18.41Q546.22-18.41 544.85-17.63 543.49-16.85 542.46-15.38L542.46-15.38 542.46-8.06Q542.46-5.76 542.54-4.39 542.61-3.03 542.71-2.49L542.71-2.49 545.73-1.76 545.59 0ZM572.29 11.13L572.29 11.13Q567.8 11.13 565.16 9.67 562.53 8.2 562.53 5.76L562.53 5.76Q562.53 4.1 563.85 2.69 565.16 1.27 568.09-0.2L568.09-0.2 569.95 0.2Q568.34 1.17 567.46 2.39 566.58 3.61 566.58 5.03L566.58 5.03Q566.58 6.98 568.14 8.06 569.71 9.13 572.49 9.13L572.49 9.13Q575.61 9.13 577.59 7.76 579.57 6.4 579.57 4.25L579.57 4.25Q579.57 2.59 578.4 1.78 577.22 0.98 574.44 0.78L574.44 0.78 569.22 0.34 568.48 0.15Q566.73 0.15 565.46-0.81 564.19-1.76 564.19-3.13L564.19-3.13Q564.19-4.44 565.46-5.71 566.73-6.98 568.97-7.96L568.97-7.96 569.61-6.98Q568.68-6.35 568.24-5.83 567.8-5.32 567.8-4.83L567.8-4.83Q567.8-4.15 568.41-3.69 569.02-3.22 570.14-3.08L570.14-3.08 576.44-2.44Q579.81-2.1 581.57-0.73 583.33 0.63 583.33 3.17L583.33 3.17Q583.33 5.42 581.86 7.23 580.4 9.03 577.91 10.08 575.42 11.13 572.29 11.13ZM572.68-6.05L572.68-6.05Q570.1-6.05 568.07-6.98 566.04-7.91 564.92-9.57 563.8-11.23 563.8-13.28L563.8-13.28Q563.8-15.63 564.97-17.43 566.14-19.24 568.14-20.29 570.14-21.34 572.64-21.34L572.64-21.34Q575.13-21.34 577.08-20.36 579.03-19.38 580.18-17.65 581.33-15.92 581.33-13.72L581.33-13.72Q581.33-11.57 580.18-9.84 579.03-8.11 577.05-7.08 575.08-6.05 572.68-6.05ZM572.93-8.01L572.93-8.01Q574.93-8.01 576.1-9.47 577.27-10.94 577.27-13.38L577.27-13.38Q577.27-16.16 575.98-17.8 574.69-19.43 572.59-19.43L572.59-19.43Q570.58-19.43 569.31-17.9 568.05-16.36 568.05-13.82L568.05-13.82Q568.05-11.28 569.39-9.64 570.73-8.01 572.93-8.01ZM584.26-20.95L584.26-17.82 578.45-18.21 576.54-20.17 584.26-20.95ZM606.52 0.39L606.52 0.39Q603.78 0.39 601.49-0.85 599.19-2.1 597.83-4.47 596.46-6.84 596.46-10.11L596.46-10.11Q596.46-13.28 597.9-15.82 599.34-18.36 601.83-19.87 604.32-21.39 607.49-21.39L607.49-21.39Q609.64-21.39 611.11-20.85 612.57-20.31 613.33-19.43 614.09-18.55 614.09-17.58L614.09-17.58Q614.09-16.8 613.6-16.28 613.11-15.77 612.23-15.77L612.23-15.77Q611.4-15.77 610.86-16.06 610.33-16.36 609.45-17.24L609.45-17.24 606.96-19.73 608.71-19.24Q606.76-19.68 604.95-18.87 603.15-18.07 601.98-16.09 600.8-14.11 600.8-10.99L600.8-10.99Q600.8-7.08 602.78-4.98 604.76-2.88 607.74-2.88L607.74-2.88Q609.59-2.88 610.94-3.56 612.28-4.25 613.5-5.76L613.5-5.76 614.82-4.64Q613.45-2.1 611.35-0.85 609.25 0.39 606.52 0.39ZM626.48 0L616.48 0 616.38-1.76 619.4-2.49Q619.5-3.03 619.53-4.13 619.55-5.22 619.6-7.08 619.65-8.94 619.65-11.62L619.65-11.62 619.65-17.72Q619.65-19.38 619.62-21.29 619.6-23.19 619.58-24.98 619.55-26.76 619.5-28.1 619.45-29.44 619.45-29.83L619.45-29.83 615.84-30.32 615.74-31.88 622.63-33.89 623.56-33.2Q623.51-31.69 623.46-30.18 623.41-28.66 623.38-26.9 623.36-25.15 623.34-22.97 623.31-20.8 623.31-17.92L623.31-17.92 623.46-17.87Q625.12-19.73 626.78-20.56 628.44-21.39 630.39-21.39L630.39-21.39Q632.2-21.39 633.78-20.46 635.37-19.53 636.37-17.65 637.37-15.77 637.37-12.84L637.37-12.84 637.37-7.57Q637.37-5.81 637.47-4.42 637.57-3.03 637.67-2.49L637.67-2.49 640.69-1.76 640.6 0 630.78 0 630.64-1.76 633.47-2.49Q633.52-2.88 633.57-3.47 633.61-4.05 633.64-4.98 633.66-5.91 633.66-7.23L633.66-7.23 633.66-12.5Q633.66-14.6 632.95-15.89 632.25-17.19 631.12-17.8 630-18.41 628.73-18.41L628.73-18.41Q627.12-18.41 625.75-17.63 624.39-16.85 623.36-15.38L623.36-15.38 623.36-8.06Q623.36-5.81 623.43-4.35 623.51-2.88 623.6-2.49L623.6-2.49 626.58-1.76 626.48 0ZM651.38 0.39L651.38 0.39Q649.43 0.39 647.92-0.39 646.4-1.17 645.55-2.39 644.7-3.61 644.7-4.93L644.7-4.93Q644.7-6.54 645.75-7.62 646.79-8.69 649.29-9.52L649.29-9.52 656.71-12.01 656.71-14.5Q656.71-15.72 655.97-16.72 655.24-17.72 654.02-18.31 652.8-18.9 651.29-18.9L651.29-18.9Q650.07-18.9 649.63-18.38 649.19-17.87 649.09-16.36L649.09-16.36 648.99-14.31Q647.23-13.92 646.01-14.43 644.79-14.94 644.79-16.11L644.79-16.11Q644.79-16.94 645.53-17.77 646.26-18.6 647.43-19.36 648.6-20.12 649.94-20.65 651.29-21.19 652.61-21.39L652.61-21.39Q656.17-21.39 658.37-19.51 660.56-17.63 660.61-14.5L660.61-14.5 660.52-6.3Q660.52-5.42 660.59-4.52 660.66-3.61 660.81-3.17L660.81-3.17 663.93-2.59 663.93-1.07 661.54-0.2Q660.86 0.1 660.27 0.24 659.69 0.39 659.29 0.39L659.29 0.39Q657.78 0.39 657.34-1.32L657.34-1.32 656.8-3.22 657.54-3.22Q655.93-1.42 654.44-0.51 652.95 0.39 651.38 0.39ZM652.7-2.49L652.7-2.49Q653.83-2.49 654.83-3 655.83-3.52 656.71-4.59L656.71-4.59 656.71-9.72 651.24-8.25Q650.07-7.96 649.55-7.32 649.04-6.69 649.04-5.71L649.04-5.71Q649.04-4.49 650.14-3.49 651.24-2.49 652.7-2.49ZM676.72 0L666.32 0 666.23-1.81 669.4-2.49Q669.5-3.03 669.52-4.13 669.55-5.22 669.6-7.08 669.64-8.94 669.64-11.62L669.64-11.62 669.64-17.72Q669.64-19.53 669.62-21.48 669.6-23.44 669.57-25.2 669.55-26.95 669.5-28.2 669.45-29.44 669.45-29.83L669.45-29.83 665.84-30.32 665.74-31.88 672.72-33.89 673.65-33.2Q673.6-31.1 673.55-29.08 673.5-27.05 673.48-24.56 673.45-22.07 673.45-18.55L673.45-18.55 673.4-10.69Q673.4-7.81 673.48-5.49 673.55-3.17 673.65-2.49L673.65-2.49 676.82-1.81 676.72 0ZM689.86 0L679.46 0 679.36-1.81 682.53-2.49Q682.63-3.03 682.65-4.13 682.68-5.22 682.73-7.08 682.78-8.94 682.78-11.62L682.78-11.62 682.78-17.72Q682.78-19.53 682.75-21.48 682.73-23.44 682.7-25.2 682.68-26.95 682.63-28.2 682.58-29.44 682.58-29.83L682.58-29.83 678.97-30.32 678.87-31.88 685.85-33.89 686.78-33.2Q686.73-31.1 686.68-29.08 686.63-27.05 686.61-24.56 686.58-22.07 686.58-18.55L686.58-18.55 686.54-10.69Q686.54-7.81 686.61-5.49 686.68-3.17 686.78-2.49L686.78-2.49 689.95-1.81 689.86 0ZM703.33 0.39L703.33 0.39Q700.5 0.39 698.2-0.88 695.91-2.15 694.59-4.52 693.27-6.88 693.27-10.11L693.27-10.11Q693.27-13.57 694.69-16.11 696.1-18.65 698.4-20.04 700.69-21.44 703.33-21.39L703.33-21.39Q707.14-21.34 709.29-18.87 711.44-16.41 711.44-11.82L711.44-11.82 711.44-10.94 696.45-10.94 696.45-13.09 708.21-13.09 707.68-12.45 707.68-13.48Q707.68-16.26 706.43-17.8 705.19-19.34 702.94-19.34L702.94-19.34Q701.57-19.34 700.3-18.53 699.03-17.72 698.25-16.09 697.47-14.45 697.47-11.96L697.47-11.96 697.47-11.38Q697.47-7.37 699.45-5.13 701.43-2.88 704.55-2.88L704.55-2.88Q706.31-2.88 707.65-3.54 708.99-4.2 710.26-5.76L710.26-5.76 711.48-4.64Q710.12-2.1 708.02-0.85 705.92 0.39 703.33 0.39ZM724.71 0L714.7 0 714.61-1.76 717.63-2.49Q717.68-2.83 717.71-3.42 717.73-4 717.78-5.03 717.83-6.05 717.83-7.71L717.83-7.71 717.88-11.47Q717.88-13.09 717.76-14.7 717.63-16.31 717.49-17.19L717.49-17.19 714.36-17.87 714.36-19.48 720.91-21.29 721.74-20.51 721.49-17.92 721.64-17.87Q723.35-19.73 725.01-20.56 726.67-21.39 728.62-21.39L728.62-21.39Q730.43-21.39 732.01-20.48 733.6-19.58 734.6-17.7 735.6-15.82 735.6-12.99L735.6-12.99 735.6-7.57Q735.6-5.81 735.68-4.39 735.75-2.98 735.9-2.49L735.9-2.49 738.92-1.76 738.78 0 728.96 0 728.87-1.76 731.7-2.49Q731.75-2.88 731.79-3.47 731.84-4.05 731.87-4.98 731.89-5.91 731.89-7.23L731.89-7.23 731.89-12.5Q731.89-14.7 731.14-15.99 730.38-17.29 729.26-17.85 728.13-18.41 726.96-18.41L726.96-18.41Q725.35-18.41 723.98-17.63 722.62-16.85 721.59-15.38L721.59-15.38 721.59-8.06Q721.59-5.76 721.66-4.39 721.74-3.03 721.83-2.49L721.83-2.49 724.86-1.76 724.71 0ZM751.42 11.13L751.42 11.13Q746.93 11.13 744.29 9.67 741.66 8.2 741.66 5.76L741.66 5.76Q741.66 4.1 742.97 2.69 744.29 1.27 747.22-0.2L747.22-0.2 749.08 0.2Q747.47 1.17 746.59 2.39 745.71 3.61 745.71 5.03L745.71 5.03Q745.71 6.98 747.27 8.06 748.83 9.13 751.62 9.13L751.62 9.13Q754.74 9.13 756.72 7.76 758.7 6.4 758.7 4.25L758.7 4.25Q758.7 2.59 757.52 1.78 756.35 0.98 753.57 0.78L753.57 0.78 748.34 0.34 747.61 0.15Q745.85 0.15 744.59-0.81 743.32-1.76 743.32-3.13L743.32-3.13Q743.32-4.44 744.59-5.71 745.85-6.98 748.1-7.96L748.1-7.96 748.74-6.98Q747.81-6.35 747.37-5.83 746.93-5.32 746.93-4.83L746.93-4.83Q746.93-4.15 747.54-3.69 748.15-3.22 749.27-3.08L749.27-3.08 755.57-2.44Q758.94-2.1 760.7-0.73 762.46 0.63 762.46 3.17L762.46 3.17Q762.46 5.42 760.99 7.23 759.53 9.03 757.04 10.08 754.55 11.13 751.42 11.13ZM751.81-6.05L751.81-6.05Q749.22-6.05 747.2-6.98 745.17-7.91 744.05-9.57 742.93-11.23 742.93-13.28L742.93-13.28Q742.93-15.63 744.1-17.43 745.27-19.24 747.27-20.29 749.27-21.34 751.76-21.34L751.76-21.34Q754.25-21.34 756.21-20.36 758.16-19.38 759.31-17.65 760.45-15.92 760.45-13.72L760.45-13.72Q760.45-11.57 759.31-9.84 758.16-8.11 756.18-7.08 754.2-6.05 751.81-6.05ZM752.06-8.01L752.06-8.01Q754.06-8.01 755.23-9.47 756.4-10.94 756.4-13.38L756.4-13.38Q756.4-16.16 755.11-17.8 753.81-19.43 751.71-19.43L751.71-19.43Q749.71-19.43 748.44-17.9 747.17-16.36 747.17-13.82L747.17-13.82Q747.17-11.28 748.52-9.64 749.86-8.01 752.06-8.01ZM763.38-20.95L763.38-17.82 757.57-18.21 755.67-20.17 763.38-20.95ZM776.08 0.39L776.08 0.39Q773.24 0.39 770.95-0.88 768.65-2.15 767.34-4.52 766.02-6.88 766.02-10.11L766.02-10.11Q766.02-13.57 767.43-16.11 768.85-18.65 771.15-20.04 773.44-21.44 776.08-21.39L776.08-21.39Q779.89-21.34 782.03-18.87 784.18-16.41 784.18-11.82L784.18-11.82 784.18-10.94 769.19-10.94 769.19-13.09 780.96-13.09 780.42-12.45 780.42-13.48Q780.42-16.26 779.18-17.8 777.93-19.34 775.69-19.34L775.69-19.34Q774.32-19.34 773.05-18.53 771.78-17.72 771-16.09 770.22-14.45 770.22-11.96L770.22-11.96 770.22-11.38Q770.22-7.37 772.2-5.13 774.17-2.88 777.3-2.88L777.3-2.88Q779.06-2.88 780.4-3.54 781.74-4.2 783.01-5.76L783.01-5.76 784.23-4.64Q782.86-2.1 780.76-0.85 778.66 0.39 776.08 0.39ZM795.51 0.39L795.51 0.39Q793.7 0.39 791.89-0.02 790.09-0.44 788.82-1.12L788.82-1.12 788.57-6.35 790.97-6.35 791.94-2.83Q793.55-1.66 795.85-1.66L795.85-1.66Q797.46-1.66 798.51-2.47 799.56-3.27 799.56-4.64L799.56-4.64Q799.56-5.96 798.63-6.88 797.71-7.81 795.02-8.94L795.02-8.94Q791.55-10.45 790.14-11.87 788.72-13.28 788.72-15.43L788.72-15.43Q788.72-17.19 789.77-18.53 790.82-19.87 792.68-20.63 794.53-21.39 796.97-21.39L796.97-21.39Q798.34-21.39 799.76-21.17 801.17-20.95 802.1-20.51L802.1-20.51 802.64-15.43 800.34-15.43 799.17-18.75Q798.68-19.04 798-19.21 797.31-19.38 796.53-19.38L796.53-19.38Q794.82-19.38 793.8-18.58 792.77-17.77 792.77-16.5L792.77-16.5Q792.77-15.04 793.9-14.14 795.02-13.23 797.85-11.91L797.85-11.91Q801.07-10.45 802.34-9.03 803.61-7.62 803.61-5.62L803.61-5.62Q803.61-2.98 801.32-1.29 799.02 0.39 795.51 0.39Z" opacity="1" transform="matrix(1,0,0,1,0,0)" fill="#e65728" class="undefined-text-1" data-fill-palette-color="secondary" id="text-1"></path></svg></g></svg></g></svg></g></svg></g><g transform="matrix(1,0,0,1,438.11992265376915,0)"><svg viewBox="0 0 147.437512196115 147.437512196115" height="147.437512196115" width="147.437512196115"><g><svg xmlns="http://www.w3.org/2000/svg" xmlns:xlink="http://www.w3.org/1999/xlink" version="1.1" x="0" y="0" viewBox="0 0 100 100" enable-background="new 0 0 100 100" xml:space="preserve" height="147.437512196115" width="147.437512196115" class="icon-icon-0" data-fill-palette-color="accent" id="icon-0"><path d="M97.709 97L100 99.488v-3.397L8.714 0H8.403l2.762 3h-0.2L8.248 0H4.357l1.619 3H5.776L4.202 0H0.467l0.519 3H0.787L0.311 0H0l12.908 100h3.243l-0.476-3h1.578l0.52 3h38.917l-1.574-3h1.577l1.619 3H98.85l-2.718-3H97.709zM38.786 33l5.524 6h-0.727l-5.437-6H38.786zM16.689 9l5.524 6h-0.375l-5.436-6H16.689zM9.213 9l3.237 6h-0.375L8.925 9H9.213zM2.687 15l-0.95-6h0.288l1.038 6H2.687zM4.588 27l-0.95-6h0.463l1.039 6H4.588zM6.489 39l-0.95-6h0.639l1.039 6H6.489zM8.39 51l-0.95-6h0.815l1.039 6H8.39zM9.34 57h0.991l1.039 6h-1.079L9.34 57zM12.191 75l-0.951-6h1.167l1.039 6H12.191zM13.142 81h1.343l1.038 6h-1.431L13.142 81zM15.201 94l-0.158-1h1.519l0.173 1H15.201zM18.374 27l-3.149-6h0.463l3.237 6H18.374zM24.672 39l-3.149-6h0.64l3.237 6H24.672zM30.971 51l-3.149-6h0.815l3.237 6H30.971zM32.71 27l-5.436-6h0.463l5.524 6H32.71zM37.269 63l-3.149-6h0.991l3.237 6H37.269zM43.568 75l-3.149-6h1.167l3.237 6H43.568zM49.866 87l-3.149-6h1.343l3.237 6H49.866zM53.54 94l-0.524-1h1.519l0.54 1H53.54zM54.454 51l-5.436-6h0.815l5.524 6H54.454zM65.327 63l-5.437-6h0.991l5.524 6H65.327zM76.199 75l-5.437-6h1.167l5.524 6H76.199zM87.071 87l-5.437-6h1.344l5.523 6H87.071zM93.413 94l-0.905-1h1.519l0.921 1H93.413z" fill="#e65728" data-fill-palette-color="accent"></path></svg></g></svg></g></svg></g></svg><rect width="395.52" height="99.58798463340685" fill="none" stroke="none" visibility="hidden"></rect></g></svg></g></svg>